<svg xmlns="http://www.w3.org/2000/svg" width="333" height="45"><path d="M83.554 24.027c0 7.09-1.618 12.366-4.842 15.811C75.476 43.283 70.499 45 63.776 45c-6.281 0-11.04-1.717-14.296-5.162-3.245-3.445-4.872-8.638-4.872-15.569V0h13.36v24.775c0 2.833.526 5.014 1.585 6.552 1.062 1.527 2.574 2.296 4.549 2.296 1.984 0 3.497-.716 4.537-2.16 1.04-1.442 1.554-3.57 1.554-6.382V0h13.36v24.027zm21.815 11.114h12.982v9.1H88.164v-6.078l14.18-16.42H89.49V12.64h28.59v7.468L105.37 35.14zm49.271 9.1l-15.577-21.35c-1.228-1.687-2.236-3.203-3.014-4.562h-.126c.126 2.18.189 4.624.189 7.341v18.57h-12.289V0h12.563l14.924 20.299c.18.262.41.579.672.958.263.368.537.748.8 1.137.271.39.524.77.755 1.138.23.369.42.706.536.99h.126c-.126-.906-.189-2.464-.189-4.688V0h12.29v44.24h-11.66zm30.44-12.071c.23 1.358 1.008 2.423 2.342 3.202 1.334.769 3.1 1.16 5.294 1.16 3.057 0 5.956-.592 8.686-1.77v8.321C198.22 44.357 194.364 45 189.826 45c-5.493 0-9.767-1.412-12.824-4.225-3.056-2.811-4.59-6.688-4.59-11.628 0-3.393.673-6.383 2.017-8.975 1.345-2.58 3.33-4.614 5.965-6.087 2.637-1.465 5.536-2.203 8.718-2.203 3.257 0 6.05.632 8.37 1.907 2.311 1.275 4.076 3.065 5.274 5.372 1.197 2.297 1.797 4.993 1.797 8.08v4.929h-19.474zm7.878-6.888c0-3.625-1.303-5.437-3.907-5.437-1.093 0-1.996.496-2.742 1.486-.735 1-1.166 2.307-1.292 3.95h7.941zm56.99 18.959h-13.633l-3.13-15.379c-.389-1.854-.588-3.486-.588-4.908h-.189c-.22 2.18-.452 3.76-.672 4.718l-3.424 15.569h-13.59l-8.34-31.6h13.16l2.71 18.392.462 4.108h.189c.263-2.413.452-3.814.546-4.226l4.034-18.274h12.487l3.478 18.274.273 2.192.158 1.97h.19l.081-.895 2.806-21.541h11.795l-8.802 31.6zm37.992-10.502c0 3.57-1.355 6.352-4.075 8.312C281.144 44.021 277.363 45 272.5 45c-1.418 0-3.162-.148-5.241-.432-2.09-.285-3.782-.633-5.095-1.044V34.32c3.876 1.727 7.111 2.591 9.706 2.591 2.562 0 3.844-.663 3.844-2.001 0-.558-.294-1.023-.893-1.38-.588-.36-2.153-.96-4.663-1.802-2.795-.884-4.821-2.064-6.093-3.517-1.27-1.465-1.9-3.372-1.9-5.71 0-3.275 1.302-5.856 3.896-7.763s6.24-2.855 10.934-2.855c2.752 0 5.661.4 8.739 1.2v8.849c-1.292-.558-2.71-1.021-4.253-1.4-1.534-.369-2.826-.559-3.877-.559-.86 0-1.555.147-2.068.431-.516.285-.768.685-.768 1.201 0 .6.274 1.085.83 1.454.557.368 1.66.812 3.33 1.327 3.213.948 5.524 2.16 6.922 3.646 1.396 1.473 2.09 3.381 2.09 5.708m16.596-5.755v-.004c0-1.538 1.122-2.876 2.754-3.534l.048.03c1.98 1.405 3.906 2.772 5.914 3.504-2.011.737-3.93 2.104-5.914 3.512l-.045.03c-1.635-.66-2.757-1.992-2.757-3.535zm-276.073 0v-.004c0-1.538-1.12-2.876-2.753-3.534l-.049.03c-1.98 1.405-3.905 2.772-5.914 3.504 2.013.737 3.932 2.104 5.914 3.512l.046.03c1.635-.66 2.756-1.992 2.756-3.535zm9.525-10.162c-2.409-1.063-4.966-1.603-7.864-.875-4.878 1.84-5.598 2.944-10.026 6.274-.959.719-1.893 1.326-2.814 1.681-2.539.977-3.955.953-4.623.519-.32-.214-.394-.589-.307-.94.09-.38.334-.705.641-.767.306-.06.431-.202.968.495.478.708 1.612.277 1.936-.442.136-.297.129-.644-.11-.982-1.172-1.51-2.138-1.554-3.23-1.344-1.232.242-2.16 1.294-2.447 2.487-.298 1.22.022 2.599 1.291 3.43.548.354 1.279.594 2.233.626-.954.03-1.685.272-2.233.627-1.267.829-1.59 2.209-1.29 3.428.287 1.192 1.214 2.246 2.446 2.487 1.092.21 2.058.168 3.23-1.344.239-.339.246-.684.11-.981-.324-.72-1.458-1.151-1.936-.441-.537.695-.662.554-.968.494-.307-.062-.551-.388-.641-.767-.087-.35-.013-.725.307-.94.668-.436 2.084-.46 4.623.518.921.354 1.855.962 2.814 1.681 4.428 3.33 5.148 4.435 10.026 6.275 2.898.727 5.455.187 7.864-.876 1.137-.504 1.733-1.472 1.515-2.147-.199-.623-.782-.777-1.515-.413-2.244 1.114-4.605 1.863-7.304 1.185-2.31-.575-4.307-1.975-6.158-3.445-.38-.304-.754-.607-1.124-.905-1.772-1.44-3.44-2.795-5.297-3.512-1.547-.594-2.834-.873-3.89-.924 1.056-.051 2.343-.33 3.89-.925 1.857-.716 3.525-2.072 5.297-3.512.37-.297.743-.6 1.124-.904 1.85-1.47 3.847-2.871 6.158-3.445 2.699-.679 5.06.07 7.304 1.183.733.366 1.316.211 1.515-.412.218-.674-.378-1.643-1.515-2.147zM0 27.985c3.979-2.368 4.778-2.37 6.608-2.37 1.837 0 3.325 1.06 3.322 2.37.003 1.308-1.49 2.368-3.322 2.368-1.83 0-2.63 0-6.608-2.368zm31.979-.004c-1.583-.455-2.738-1.946-2.738-3.709 0-1.97 1.435-3.592 3.286-3.83l.09-.008.003-.003.087-.004.009-.003.086-.004h.009l.09-.002.003-.004h.095c2.037 0 3.692 1.659 3.755 3.736a3.83 3.83 0 0 1 .389-.026c1.98 0 3.597 1.577 3.747 3.57l.002.092v.096l.005.009-.003.092v.105l-.003.095v.005l-.003.091c-.15 1.996-1.767 3.565-3.747 3.565-.13 0-.262-.009-.39-.018-.062 2.072-1.717 3.732-3.753 3.732h-.1l-.093-.004H32.8l-.091-.009h-.003l-.09-.009-.003.003-.093-.017c-1.848-.238-3.282-1.863-3.282-3.827 0-1.763 1.157-3.255 2.737-3.714zm263.032-10.157c2.41-1.063 4.966-1.603 7.864-.875 4.878 1.84 5.6 2.944 10.027 6.274.96.719 1.893 1.326 2.814 1.68 2.537.978 3.954.954 4.623.52.32-.214.395-.589.307-.94-.09-.38-.335-.705-.64-.768-.307-.06-.432-.202-.969.495-.478.709-1.611.278-1.937-.442-.135-.296-.129-.643.111-.981 1.17-1.51 2.138-1.554 3.229-1.344 1.233.242 2.16 1.294 2.447 2.487.3 1.22-.022 2.599-1.29 3.43-.548.354-1.28.594-2.233.626.953.03 1.685.272 2.233.627 1.268.829 1.59 2.209 1.29 3.428-.287 1.192-1.214 2.246-2.447 2.487-1.09.21-2.059.168-3.229-1.344-.24-.339-.246-.685-.11-.981.325-.72 1.458-1.151 1.936-.441.537.695.662.554.968.494.306-.062.551-.388.641-.767.088-.351.013-.725-.307-.94-.669-.436-2.086-.46-4.623.518-.921.354-1.854.962-2.814 1.68-4.428 3.33-5.149 4.436-10.027 6.276-2.898.726-5.454.187-7.864-.876-1.136-.504-1.731-1.472-1.515-2.147.2-.623.782-.777 1.515-.413 2.246 1.114 4.605 1.863 7.305 1.185 2.311-.575 4.307-1.976 6.158-3.445.381-.304.754-.607 1.124-.905 1.771-1.44 3.44-2.795 5.297-3.512 1.547-.594 2.834-.873 3.89-.924-1.056-.052-2.343-.33-3.89-.925-1.858-.716-3.526-2.072-5.297-3.512-.37-.297-.743-.601-1.124-.904-1.85-1.47-3.847-2.871-6.158-3.445-2.7-.68-5.06.07-7.305 1.183-.733.366-1.315.211-1.515-.412-.216-.674.38-1.644 1.515-2.147zM333 27.986c-3.98-2.368-4.778-2.37-6.61-2.37-1.835 0-3.323 1.06-3.32 2.37-.003 1.308 1.488 2.368 3.32 2.368 1.832 0 2.63 0 6.61-2.368zm-31.979-.004c1.583-.455 2.736-1.946 2.736-3.709 0-1.97-1.433-3.592-3.284-3.83l-.09-.008-.003-.003-.087-.004-.009-.003-.087-.004h-.01l-.088-.002-.003-.004h-.097c-2.037 0-3.69 1.659-3.755 3.736-.125-.018-.258-.022-.387-.026-1.98 0-3.599 1.577-3.749 3.57v.188l-.01.009.004.092v.106l.004.094v.095c.15 1.996 1.77 3.566 3.75 3.566.128 0 .261-.01.389-.018.063 2.072 1.716 3.732 3.752 3.732h.101l.093-.004h.005l.092-.009h.001l.091-.009.002.003.095-.017c1.847-.238 3.28-1.863 3.28-3.828 0-1.762-1.155-3.254-2.736-3.714" fill="#20235a"/></svg>